<?xml version="1.0" encoding="UTF-8"?>
<svg xmlns="http://www.w3.org/2000/svg" width="640" height="360" viewBox="0 0 640 360" role="img" aria-label="Paste both in Halla AI. User number + connection code below">
  <defs>
    <linearGradient id="bg" x1="0" y1="0" x2="0" y2="1">
      <stop offset="0%" stop-color="#f1f5f9"/>
      <stop offset="100%" stop-color="#e2e8f0"/>
    </linearGradient>
  </defs>
  <rect width="640" height="360" fill="url(#bg)" rx="12"/>
  
  
  <rect x="32" y="32" width="88" height="28" rx="14" fill="#0ea5e9"/>
  <text x="76" y="51" text-anchor="middle" font-family="system-ui,sans-serif" font-size="12" font-weight="700" fill="#ffffff">STEP 4/4</text>
  
  <rect x="24" y="72" width="592" height="40" fill="#ffffff" stroke="#e2e8f0" rx="8"/>
  <text x="320" y="98" text-anchor="middle" font-family="system-ui,sans-serif" font-size="13" font-weight="600" fill="#64748b">Acuity Scheduling setup</text>
  <rect x="48" y="128" width="220" height="152" fill="#f8fafc" stroke="#e2e8f0" rx="10"/>
  <text x="158" y="168" text-anchor="middle" font-size="11" font-weight="600" fill="#64748b">Acuity Scheduling</text>
  <rect x="72" y="182" width="172" height="28" rx="6" fill="#e2e8f0"/>
  <text x="158" y="230" text-anchor="middle" font-size="10" fill="#94a3b8">copied code</text>
  <path d="M 280 204 L 318 204 L 318 220 L 343 188 L 318 156 L 318 172 L 280 172 Z" fill="#0ea5e9"/>
  <rect x="360" y="128" width="232" height="152" fill="#ffffff" stroke="#0ea5e9" stroke-width="2" rx="10"/>
  <text x="476" y="156" text-anchor="middle" font-size="11" font-weight="700" fill="#0369a1">Halla AI</text>
  <text x="476" y="182" text-anchor="middle" font-family="system-ui,-apple-system,Segoe UI,sans-serif" font-size="14" font-weight="700" fill="#0f172a">Paste both in Halla AI</text>
  <rect x="384" y="198" width="184" height="36" rx="6" fill="#eff6ff" stroke="#3b82f6" stroke-width="2"/>
  <text x="476" y="221" text-anchor="middle" font-size="11" fill="#3b82f6">Paste here ↓</text>
  <text x="476" y="262" text-anchor="middle" font-family="system-ui,-apple-system,Segoe UI,sans-serif" font-size="11" font-weight="500" fill="#64748b">User number + connection</text>
<text x="476" y="279" text-anchor="middle" font-family="system-ui,-apple-system,Segoe UI,sans-serif" font-size="11" font-weight="500" fill="#64748b">code below</text>
  
  <rect x="24" y="300" width="592" height="48" fill="#0f172a" rx="8"/>
  <text x="320" y="326" text-anchor="middle" font-family="system-ui,-apple-system,Segoe UI,sans-serif" font-size="13" font-weight="500" fill="#f8fafc">Paste both in Halla AI</text>
</svg>